<svg width="123" height="23" viewBox="0 0 123 23" fill="none" xmlns="http://www.w3.org/2000/svg">
<path d="M5.2799 21.9092H0.66626L7.69609 1.54556H13.2444L20.2643 21.9092H15.6506L10.5498 6.19896H10.3907L5.2799 21.9092ZM4.99154 13.9049H15.8893V17.2657H4.99154V13.9049Z" fill="#101828"/>
<path d="M26.8715 1.54556V21.9092H22.6357V1.54556H26.8715Z" fill="#101828"/>
<path d="M38.3882 6.63646V9.81828H29.1908V6.63646H38.3882ZM31.2788 2.97737H35.5146V17.216C35.5146 17.6071 35.5743 17.912 35.6936 18.1308C35.8129 18.3429 35.9786 18.4921 36.1908 18.5782C36.4095 18.6644 36.6614 18.7075 36.9464 18.7075C37.1453 18.7075 37.3442 18.6909 37.543 18.6578C37.7419 18.618 37.8944 18.5882 38.0004 18.5683L38.6666 21.7203C38.4545 21.7866 38.1562 21.8628 37.7717 21.949C37.3873 22.0418 36.9199 22.0981 36.3697 22.118C35.3489 22.1578 34.454 22.0219 33.6851 21.7103C32.9228 21.3988 32.3295 20.9149 31.9053 20.2586C31.481 19.6024 31.2722 18.7738 31.2788 17.7728V2.97737Z" fill="#101828"/>
<path d="M46.728 20.8055V6.72595H50.2877V20.8055H46.728ZM41.4681 15.5456V11.9859H55.5476V15.5456H41.4681Z" fill="#101828"/>
<path d="M70.8403 7.40209C70.7607 6.60001 70.4193 5.9769 69.8161 5.53277C69.2129 5.08864 68.3942 4.86658 67.3602 4.86658C66.6575 4.86658 66.0642 4.96601 65.5803 5.16487C65.0964 5.35711 64.7252 5.62557 64.4667 5.97027C64.2148 6.31497 64.0888 6.70607 64.0888 7.14357C64.0756 7.50815 64.1518 7.82633 64.3175 8.09811C64.4899 8.36989 64.7252 8.60521 65.0235 8.80408C65.3218 8.99631 65.6665 9.16535 66.0576 9.31118C66.4487 9.45039 66.8663 9.5697 67.3104 9.66914L69.14 10.1066C70.0282 10.3055 70.8436 10.5707 71.586 10.9021C72.3284 11.2335 72.9714 11.6412 73.515 12.1251C74.0585 12.609 74.4795 13.1791 74.7778 13.8353C75.0827 14.4916 75.2385 15.2439 75.2451 16.0924C75.2385 17.3386 74.9203 18.4191 74.2906 19.3339C73.6674 20.2421 72.7659 20.948 71.586 21.4518C70.4127 21.949 68.9975 22.1975 67.3403 22.1975C65.6963 22.1975 64.2645 21.9457 63.0448 21.4419C61.8317 20.9381 60.8838 20.1923 60.2011 19.2046C59.5249 18.2103 59.1703 16.9807 59.1371 15.5157H63.3033C63.3497 16.1985 63.5453 16.7686 63.89 17.226C64.2413 17.6767 64.7086 18.0181 65.292 18.2501C65.8819 18.4755 66.5481 18.5882 67.2906 18.5882C68.0197 18.5882 68.6528 18.4821 69.1897 18.27C69.7333 18.0579 70.1542 17.7629 70.4525 17.385C70.7508 17.0072 70.8999 16.573 70.8999 16.0825C70.8999 15.6251 70.764 15.2406 70.4923 14.9291C70.2271 14.6175 69.836 14.3524 69.319 14.1336C68.8085 13.9149 68.1821 13.716 67.4397 13.537L65.2224 12.9802C63.5055 12.5626 62.1499 11.9097 61.1556 11.0214C60.1613 10.1331 59.6674 8.93665 59.6741 7.43192C59.6674 6.19896 59.9956 5.12179 60.6584 4.20039C61.328 3.27898 62.246 2.55976 63.4127 2.04271C64.5794 1.52567 65.9051 1.26715 67.39 1.26715C68.9013 1.26715 70.2205 1.52567 71.3474 2.04271C72.4809 2.55976 73.3625 3.27898 73.9923 4.20039C74.622 5.12179 74.9468 6.18902 74.9667 7.40209H70.8403Z" fill="#101828"/>
<path d="M82.2973 13.0796V21.9092H78.0615V1.54556H82.178V9.33107H82.357C82.7017 8.42955 83.2585 7.72359 84.0274 7.21317C84.7963 6.69612 85.7608 6.4376 86.9209 6.4376C87.9815 6.4376 88.9062 6.66961 89.695 7.13362C90.4905 7.59101 91.107 8.25057 91.5445 9.11232C91.9886 9.96743 92.2073 10.9916 92.2007 12.1848V21.9092H87.9649V12.9404C87.9715 11.9992 87.7329 11.2667 87.249 10.743C86.7717 10.2193 86.1022 9.95749 85.2405 9.95749C84.6638 9.95749 84.1534 10.0801 83.7092 10.3254C83.2717 10.5707 82.927 10.9286 82.6751 11.3992C82.4299 11.8633 82.3039 12.4234 82.2973 13.0796Z" fill="#101828"/>
<path d="M95.5342 21.9092V6.63646H99.77V21.9092H95.5342ZM97.662 4.66771C97.0323 4.66771 96.492 4.45891 96.0413 4.04129C95.5971 3.61705 95.3751 3.10995 95.3751 2.51999C95.3751 1.93665 95.5971 1.43618 96.0413 1.01857C96.492 0.594324 97.0323 0.382202 97.662 0.382202C98.2917 0.382202 98.8287 0.594324 99.2728 1.01857C99.7236 1.43618 99.9489 1.93665 99.9489 2.51999C99.9489 3.10995 99.7236 3.61705 99.2728 4.04129C98.8287 4.45891 98.2917 4.66771 97.662 4.66771Z" fill="#101828"/>
<path d="M112.89 6.63646V9.81828H101.95V6.63646H112.89ZM104.108 21.9092V5.53277C104.108 4.42576 104.323 3.50768 104.754 2.77851C105.191 2.04934 105.788 1.50247 106.544 1.13788C107.299 0.773301 108.158 0.591009 109.119 0.591009C109.769 0.591009 110.362 0.640725 110.899 0.740158C111.442 0.83959 111.847 0.929078 112.112 1.00862L111.356 4.19044C111.191 4.13741 110.985 4.08769 110.74 4.04129C110.501 3.99489 110.256 3.97169 110.004 3.97169C109.381 3.97169 108.947 4.11753 108.701 4.40919C108.456 4.69423 108.334 5.09527 108.334 5.61232V21.9092H104.108Z" fill="#101828"/>
<path d="M122.087 6.63646V9.81828H112.89V6.63646H122.087ZM114.978 2.97737H119.214V17.216C119.214 17.6071 119.274 17.912 119.393 18.1308C119.512 18.3429 119.678 18.4921 119.89 18.5782C120.109 18.6644 120.361 18.7075 120.646 18.7075C120.845 18.7075 121.043 18.6909 121.242 18.6578C121.441 18.618 121.594 18.5882 121.7 18.5683L122.366 21.7203C122.154 21.7866 121.855 21.8628 121.471 21.949C121.086 22.0418 120.619 22.0981 120.069 22.118C119.048 22.1578 118.153 22.0219 117.384 21.7103C116.622 21.3988 116.029 20.9149 115.604 20.2586C115.18 19.6024 114.971 18.7738 114.978 17.7728V2.97737Z" fill="#101828"/>
</svg>
